<svg version="1.1" width="57.0127" height="67.4259" viewBox="0 0 42.7595 50.5694" xmlns="http://www.w3.org/2000/svg" xmlns:xlink="http://www.w3.org/1999/xlink" stroke-linecap="square" stroke-miterlimit="3" fill="none" fill-rule="evenodd" font-size="12" overflow="visible"><g><g id="shape4-1" transform="matrix(1,0,0,1,0.119913,-0.120002)"><path d=" M 5.31 50.57 L 37.2 50.57 C 40.1353 50.5728 42.5172 48.1956 42.52 45.2603 C 42.52 45.2568 42.52 45.2534 42.52 45.25 L 42.52 5.55 C 42.5173 2.61468 40.1356 0.237312 37.2003 0.24 C 37.2002 0.24 37.2001 0.24 37.2 0.24 L 5.31 0.24 C 2.37848 0.242685 0.00268486 2.61848 -5.72205e-08 5.55 L 0 45.25 C -0.00283445 48.1853 2.37441 50.5672 5.30974 50.57 C 5.30982 50.57 5.30991 50.57 5.31 50.57 Z" stroke="none" stroke-width="0.754386" stroke-linecap="butt" stroke-linejoin="round" stroke-dasharray="" stroke-dashoffset="1" stroke-opacity="1" fill="#C1D5F7" fill-opacity="1"/></g></g></svg>